HIERARCHY
ROOT Hips
{
	OFFSET 0.00000 0.00000 0.00000
	CHANNELS 6 Xposition Yposition Zposition Zrotation Yrotation Xrotation 
	JOINT LHipJoint
	{
		OFFSET 0 0 0
		CHANNELS 3 Zrotation Yrotation Xrotation
		JOINT LeftUpLeg
		{
			OFFSET 1.65412 -1.54119 0.76744
			CHANNELS 3 Zrotation Yrotation Xrotation
			JOINT LeftLeg
			{
				OFFSET 2.19550 -6.03209 0.00000
				CHANNELS 3 Zrotation Yrotation Xrotation
				JOINT LeftFoot
				{
					OFFSET 2.38814 -6.56138 0.00000
					CHANNELS 3 Zrotation Yrotation Xrotation
					JOINT LeftToeBase
					{
						OFFSET 0.17337 -0.47632 1.75875
						CHANNELS 3 Zrotation Yrotation Xrotation
						End Site
						{
							OFFSET 0.00000 -0.00000 0.92050
						}
					}
				}
			}
		}
	}
	JOINT RHipJoint
	{
		OFFSET 0 0 0
		CHANNELS 3 Zrotation Yrotation Xrotation
		JOINT RightUpLeg
		{
			OFFSET -1.40291 -1.54119 0.76744
			CHANNELS 3 Zrotation Yrotation Xrotation
			JOINT RightLeg
			{
				OFFSET -2.22156 -6.10370 0.00000
				CHANNELS 3 Zrotation Yrotation Xrotation
				JOINT RightFoot
				{
					OFFSET -2.46840 -6.78188 0.00000
					CHANNELS 3 Zrotation Yrotation Xrotation
					JOINT RightToeBase
					{
						OFFSET -0.15659 -0.43024 1.84117
						CHANNELS 3 Zrotation Yrotation Xrotation
						End Site
						{
							OFFSET -0.00000 -0.00000 0.95587
						}
					}
				}
			}
		}
	}
	JOINT LowerBack
	{
		OFFSET 0 0 0
		CHANNELS 3 Zrotation Yrotation Xrotation
		JOINT Spine
		{
			OFFSET -0.01936 1.82120 -0.32061
			CHANNELS 3 Zrotation Yrotation Xrotation
			JOINT Spine1
			{
				OFFSET -0.00532 1.85767 -0.00071
				CHANNELS 3 Zrotation Yrotation Xrotation
				JOINT Neck
				{
					OFFSET 0 0 0
					CHANNELS 3 Zrotation Yrotation Xrotation
					JOINT Neck1
					{
						OFFSET -0.10687 1.58194 0.10810
						CHANNELS 3 Zrotation Yrotation Xrotation
						JOINT Head
						{
							OFFSET 0.15346 1.57382 -0.25612
							CHANNELS 3 Zrotation Yrotation Xrotation
							End Site
							{
								OFFSET 0.05334 1.61251 -0.10513
							}
						}
					}
				}
				JOINT LeftShoulder
				{
					OFFSET 0 0 0
					CHANNELS 3 Zrotation Yrotation Xrotation
					JOINT LeftArm
					{
						OFFSET 2.85758 0.89498 -0.01485
						CHANNELS 3 Zrotation Yrotation Xrotation
						JOINT LeftForeArm
						{
							OFFSET 4.79185 -0.00000 -0.00000
							CHANNELS 3 Zrotation Yrotation Xrotation
							JOINT LeftHand
							{
								OFFSET 2.65553 -0.00000 0.00000
								CHANNELS 3 Zrotation Yrotation Xrotation
								JOINT LeftFingerBase
								{
									OFFSET 0 0 0
									CHANNELS 3 Zrotation Yrotation Xrotation
									JOINT LeftHandIndex1
									{
										OFFSET 0.74390 -0.00000 0.00000
										CHANNELS 3 Zrotation Yrotation Xrotation
										End Site
										{
											OFFSET 0.59975 -0.00000 0.00000
										}
									}
								}
								JOINT LThumb
								{
									OFFSET 0 0 0
									CHANNELS 3 Zrotation Yrotation Xrotation
									End Site
									{
										OFFSET 0.60891 -0.00000 0.60891
									}
								}
							}
						}
					}
				}
				JOINT RightShoulder
				{
					OFFSET 0 0 0
					CHANNELS 3 Zrotation Yrotation Xrotation
					JOINT RightArm
					{
						OFFSET -2.93906 0.88031 0.02490
						CHANNELS 3 Zrotation Yrotation Xrotation
						JOINT RightForeArm
						{
							OFFSET -4.77254 -0.00000 -0.00000
							CHANNELS 3 Zrotation Yrotation Xrotation
							JOINT RightHand
							{
								OFFSET -2.75995 -0.00000 -0.00000
								CHANNELS 3 Zrotation Yrotation Xrotation
								JOINT RightFingerBase
								{
									OFFSET 0 0 0
									CHANNELS 3 Zrotation Yrotation Xrotation
									JOINT RightHandIndex1
									{
										OFFSET -0.70162 -0.00000 0.00000
										CHANNELS 3 Zrotation Yrotation Xrotation
										End Site
										{
											OFFSET -0.56566 -0.00000 0.00000
										}
									}
								}
								JOINT RThumb
								{
									OFFSET 0 0 0
									CHANNELS 3 Zrotation Yrotation Xrotation
									End Site
									{
										OFFSET -0.57430 -0.00000 0.57430
									}
								}
							}
						}
					}
				}
			}
		}
	}
}
MOTION
Frames: 12
Frame Time: .0083333
0.2593 16.1318 0.2604 0 0 0 0 0 0 -21 0 0 0 0 0 0 0 0 0 0 0 0 0 0 21 0 0 0 0 0 0 0 0 0 0 0 0 0 0 0 0 0 0 0 0 0 0 -16 0 0 21 0 0 11 0 0 0 -8 0 0 0 0 0 0 0 0 0 0 0 0 0 0 0 0 0 0 0 0 8 0 0 0 0 0 0 0 0 0 0 0 0 0 0 0 0 0
0.2593 16.1318 0.2604 -1.5833 1.7723 0.3840 0.0000 0.0000 0.0000 -16.0465 -9.5040 6.1787 0.1784 2.7208 7.5023 0.1340 4.8506 -10.3669 0.2285 -3.0765 -8.4917 0.0000 0.0000 0.0000 19.7021 10.8667 5.0383 -0.4947 -4.5094 12.5144 0.0730 -11.3668 -15.0886 -0.1649 2.6160 -7.2115 -1.7415 0.3078 7.6666 -0.4042 0.2286 -0.6123 0.5323 0.1538 -4.9451 -11.9911 -7.1777 -11.1529 11.7819 -10.2908 20.7358 4.8326 -4.6163 9.6256 -0.0000 0.0000 0.0000 -81.7400 14.8487 21.5707 20.8731 -31.6799 -5.9831 -0.0000 0.0000 -8.6829 6.7044 14.9984 1.7425 -7.1250 0.0000 -0.0000 -19.1001 44.1991 0.3925 -0.0000 0.0000 0.0000 88.0315 -14.8215 19.4177 -16.7124 26.4770 -3.9582 0.0000 0.0000 4.8653 -14.0125 13.4428 -3.3204 7.1250 -0.0000 -0.0000 9.1690 -16.2545 6.3184
0.2592 16.1324 0.2596 -1.6625 1.7436 0.4042 0.0000 0.0000 0.0000 -15.9539 -9.5249 6.0354 0.1887 2.7974 7.7153 0.1400 4.8023 -10.4428 0.2209 -3.0254 -8.3495 0.0000 0.0000 0.0000 19.7828 10.8467 5.0647 -0.4872 -4.4756 12.4187 0.0745 -11.3256 -15.0020 -0.1452 2.4554 -6.7661 -1.6427 0.3111 7.6570 -0.3768 0.2434 -0.6366 0.5034 0.1591 -4.9649 -11.9209 -7.1095 -11.1731 11.7330 -10.2045 20.8377 4.8174 -4.5737 9.6462 0.0000 -0.0000 0.0000 -81.7531 14.8905 21.6020 20.8288 -31.6279 -5.9599 -0.0000 0.0000 -8.6705 6.5783 15.1219 1.7232 -7.1250 0.0000 -0.0000 -19.2538 44.3020 0.3450 0.0000 -0.0000 0.0000 88.0206 -14.8900 19.3929 -16.6928 26.4510 -3.9495 0.0000 0.0000 5.0430 -14.6202 14.0745 -3.6298 7.1250 -0.0000 -0.0000 8.7518 -15.5669 6.1553
0.2593 16.1319 0.2600 -1.7020 1.7161 0.4282 0.0000 0.0000 0.0000 -15.9038 -9.4997 6.0169 0.1877 2.7902 7.6952 0.1392 4.8219 -10.4438 0.2226 -3.0369 -8.3816 0.0000 0.0000 0.0000 19.8226 10.8841 5.0261 -0.4891 -4.4843 12.4434 0.0740 -11.3262 -15.0104 -0.1504 2.4988 -6.8863 -1.5753 0.3180 7.6301 -0.3662 0.2598 -0.6479 0.4747 0.1656 -4.9615 -11.8542 -7.0477 -11.1865 11.7091 -10.1292 20.9010 4.8095 -4.5347 9.6553 0.0000 0.0000 0.0000 -81.7304 14.9174 21.6856 20.7841 -31.5755 -5.9365 -0.0000 0.0000 -8.7063 6.4072 15.2588 1.6928 -7.1250 0.0000 -0.0000 -19.4522 44.4122 0.2938 0.0000 0.0000 0.0000 88.0465 -14.9077 19.4167 -16.6224 26.3573 -3.9182 0.0000 0.0000 5.0228 -14.8087 14.1274 -3.6921 7.1250 -0.0000 -0.0000 8.6235 -15.4980 6.0759
0.2601 16.1325 0.2598 -1.6591 1.6874 0.4632 0.0000 0.0000 0.0000 -15.9498 -9.4643 6.0226 0.1838 2.7616 7.6157 0.1381 4.8475 -10.4478 0.2319 -3.0991 -8.5549 0.0000 0.0000 0.0000 19.7628 10.9090 4.9598 -0.4934 -4.5037 12.4982 0.0744 -11.3224 -14.9982 -0.1495 2.4913 -6.8656 -1.6043 0.3166 7.5908 -0.3596 0.2563 -0.6509 0.4984 0.1646 -4.9426 -11.8395 -6.9984 -11.2177 11.7006 -10.0608 20.9421 4.8139 -4.5010 9.6649 0.0000 -0.0000 0.0000 -81.7550 14.9738 21.7471 20.7630 -31.5507 -5.9255 -0.0000 0.0000 -8.6672 6.2954 15.2943 1.6668 -7.1250 0.0000 -0.0000 -19.5630 44.4331 0.2851 0.0000 -0.0000 0.0000 88.0378 -14.9117 19.6437 -16.4822 26.1701 -3.8562 0.0000 0.0000 4.3342 -14.8234 13.9601 -3.6531 7.1250 -0.0000 -0.0000 8.6131 -15.6671 6.0367
0.2596 16.1336 0.2601 -1.5337 1.6531 0.4998 0.0000 0.0000 0.0000 -16.0800 -9.4151 6.0513 0.1772 2.7119 7.4775 0.1326 4.8862 -10.3726 0.2384 -3.1424 -8.6753 0.0000 0.0000 0.0000 19.6221 10.9650 4.8957 -0.4992 -4.5298 12.5721 0.0713 -11.3074 -15.0237 -0.1530 2.5206 -6.9469 -1.7538 0.3179 7.5376 -0.3460 0.2462 -0.6483 0.5979 0.1636 -4.9104 -11.9301 -6.9593 -11.2937 11.7145 -9.9935 21.0610 4.8445 -4.4717 9.7178 0.0000 0.0000 0.0000 -81.8734 15.0016 21.7080 20.6940 -31.4694 -5.8894 -0.0000 0.0000 -8.4958 6.3441 15.1935 1.6690 -7.1250 0.0000 -0.0000 -19.4844 44.3433 0.3288 0.0000 0.0000 0.0000 87.9603 -14.9384 19.8823 -16.4181 26.0842 -3.8279 0.0000 0.0000 3.9206 -14.6364 13.3490 -3.4506 7.1250 -0.0000 -0.0000 8.7416 -16.3032 6.0072
0.2597 16.1341 0.2586 -1.4104 1.6694 0.5150 0.0000 0.0000 0.0000 -16.2096 -9.4039 6.1275 0.1680 2.6403 7.2790 0.1245 4.9175 -10.2374 0.2368 -3.1321 -8.6466 0.0000 0.0000 0.0000 19.4881 10.9795 4.8313 -0.5072 -4.5655 12.6732 0.0704 -11.3210 -15.0585 -0.1684 2.6433 -7.2873 -1.8813 0.3111 7.5172 -0.3509 0.2260 -0.6263 0.6670 0.1565 -4.8762 -11.9059 -6.9242 -11.4168 11.6630 -9.9354 21.1885 4.8299 -4.4422 9.7739 0.0000 0.0000 0.0000 -81.9359 14.9744 21.7240 20.6158 -31.3771 -5.8486 -0.0000 0.0000 -8.3632 6.4062 15.1265 1.6782 -7.1250 0.0000 -0.0000 -19.4063 44.2869 0.3555 0.0000 0.0000 0.0000 87.9472 -14.8670 19.3491 -16.5584 26.2719 -3.8898 0.0000 0.0000 5.7201 -14.3617 13.0197 -3.3013 7.1250 -0.0000 -0.0000 8.9322 -16.6582 6.0717
0.2614 16.1348 0.2581 -1.4114 1.6589 0.5230 0.0000 0.0000 0.0000 -16.2072 -9.3548 6.2252 0.1586 2.5661 7.0730 0.1167 4.9678 -10.1251 0.2290 -3.0802 -8.5020 0.0000 0.0000 0.0000 19.4780 10.9835 4.7763 -0.5138 -4.5942 12.7546 0.0642 -11.2785 -15.0920 -0.1733 2.6814 -7.3930 -1.8420 0.2957 7.4977 -0.3390 0.2104 -0.6104 0.6592 0.1476 -4.8480 -11.8789 -6.8698 -11.5521 11.6551 -9.8617 21.3327 4.8331 -4.4006 9.8384 -0.0000 0.0000 0.0000 -81.9839 14.9889 21.7172 20.5760 -31.3300 -5.8279 -0.0000 0.0000 -8.2500 6.3933 15.2243 1.6854 -7.1250 0.0000 -0.0000 -19.4521 44.3779 0.3109 -0.0000 0.0000 0.0000 87.9403 -14.8630 19.5265 -16.4685 26.1518 -3.8501 0.0000 0.0000 5.2733 -15.6004 14.1393 -3.9019 7.1250 -0.0000 -0.0000 8.0838 -15.4208 5.7011
0.2628 16.1347 0.2569 -1.4111 1.6509 0.5415 0.0000 0.0000 0.0000 -16.2047 -9.3296 6.2644 0.1535 2.5245 6.9576 0.1157 4.9669 -10.1023 0.2230 -3.0399 -8.3897 0.0000 0.0000 0.0000 19.4628 11.0014 4.7405 -0.5156 -4.6024 12.7780 0.0601 -11.2437 -15.1033 -0.1626 2.5976 -7.1603 -1.8272 0.2725 7.4865 -0.3083 0.1826 -0.6072 0.6860 0.1338 -4.8376 -11.8239 -6.8005 -11.7018 11.5763 -9.7551 21.4936 4.8107 -4.3479 9.9019 0.0000 0.0000 0.0000 -82.0861 14.9976 21.6624 20.5237 -31.2681 -5.8007 -0.0000 0.0000 -8.1768 6.3920 15.3019 1.6934 -7.1250 0.0000 -0.0000 -19.4809 44.4512 0.2747 0.0000 0.0000 0.0000 87.8669 -14.8503 19.5787 -16.4712 26.1553 -3.8513 0.0000 0.0000 5.5490 -14.3283 13.3967 -3.3868 7.1250 -0.0000 -0.0000 8.9529 -16.2779 6.1610
0.2626 16.1353 0.2553 -1.3685 1.6466 0.5382 0.0000 0.0000 0.0000 -16.2477 -9.3205 6.2787 0.1517 2.5099 6.9172 0.1135 4.9856 -10.0751 0.2247 -3.0514 -8.4219 0.0000 0.0000 0.0000 19.4188 11.0686 4.7633 -0.5141 -4.5956 12.7585 0.0557 -11.2543 -15.1885 -0.1433 2.4399 -6.7230 -1.8687 0.2704 7.4998 -0.3070 0.1758 -0.5977 0.7114 0.1314 -4.8352 -11.7459 -6.7603 -11.7532 11.5086 -9.6982 21.5539 4.7814 -4.3196 9.9173 0.0000 -0.0000 0.0000 -82.1115 14.9698 21.7009 20.4299 -31.1568 -5.7521 -0.0000 0.0000 -8.1383 6.4256 15.3409 1.7066 -7.1250 0.0000 -0.0000 -19.4653 44.4919 0.2541 0.0000 -0.0000 0.0000 87.8325 -14.8624 19.6852 -16.4357 26.1079 -3.8357 0.0000 0.0000 5.5118 -12.6585 12.5480 -2.7936 7.1250 -0.0000 -0.0000 10.1130 -17.2508 6.7659
0.2619 16.1354 0.2542 -1.3669 1.6348 0.5207 0.0000 0.0000 0.0000 -16.2489 -9.3145 6.2653 0.1534 2.5240 6.9562 0.1123 4.9982 -10.0627 0.2368 -3.1321 -8.6467 0.0000 0.0000 0.0000 19.4211 11.0886 4.8054 -0.5099 -4.5773 12.7069 0.0562 -11.2466 -15.1683 -0.1482 2.4810 -6.8371 -1.8658 0.2714 7.5423 -0.2997 0.1770 -0.5894 0.7171 0.1321 -4.8506 -11.6421 -6.7180 -11.7725 11.4375 -9.6404 21.5532 4.7460 -4.2907 9.9033 0.0000 0.0000 0.0000 -82.1155 14.9363 21.7784 20.3482 -31.0595 -5.7099 -0.0000 0.0000 -8.1205 6.4322 15.4118 1.7161 -7.1250 0.0000 -0.0000 -19.4848 44.5596 0.2205 0.0000 0.0000 0.0000 87.8213 -14.8687 19.7915 -16.3441 25.9850 -3.7955 0.0000 0.0000 5.2245 -12.1268 12.3593 -2.6332 7.1250 -0.0000 -0.0000 10.4845 -17.4733 6.9709
0.2623 16.1350 0.2527 -1.3685 1.6757 0.4822 0.0000 0.0000 0.0000 -16.2611 -9.3609 6.2675 0.1573 2.5553 7.0430 0.1137 4.9876 -10.0814 0.2325 -3.1035 -8.5671 0.0000 0.0000 0.0000 19.4294 11.0742 4.8942 -0.5042 -4.5517 12.6343 0.0597 -11.2812 -15.1660 -0.1426 2.4339 -6.7066 -1.8268 0.2729 7.6315 -0.2982 0.1804 -0.5954 0.6962 0.1333 -4.9072 -11.5518 -6.6798 -11.7262 11.3771 -9.5912 21.5154 4.7163 -4.2684 9.8661 0.0000 -0.0000 0.0000 -82.1120 14.9184 21.8023 20.2789 -30.9769 -5.6742 -0.0000 0.0000 -7.9254 6.2588 15.5150 1.6804 -7.1250 0.0000 -0.0000 -19.6743 44.6372 0.1835 0.0000 -0.0000 0.0000 87.8405 -14.9351 19.7660 -16.3220 25.9553 -3.7858 0.0000 0.0000 5.1788 -12.0273 12.3782 -2.6150 7.1250 -0.0000 -0.0000 10.5528 -17.4604 7.0209
